<svg width="626" height="296" viewBox="0 0 626 296" fill="none" xmlns="http://www.w3.org/2000/svg">
<path d="M365.613 35.9184L304.304 71.8367L291.96 64.6516L341.007 35.9184L328.665 28.7351L279.619 57.4683L242.593 35.9184L303.902 0L316.244 7.18331L267.195 35.9184L279.539 43.1017L328.585 14.3666L365.613 35.9184Z" fill="white"/>
<path d="M300.959 78.2405L300.921 92.5843L251.512 63.7548L251.472 78.0985L300.879 106.928L300.758 149.959L239 113.925L239.04 99.5809L288.447 128.409L288.487 114.065L239.08 85.2372L239.201 42.2041L300.959 78.2405Z" fill="white"/>
<path d="M370.799 42.2041L370.839 56.5478L321.432 85.3755L321.472 99.7192L370.879 70.8916L371 113.923L309.242 149.959L309.201 135.615L358.608 106.786L358.568 92.4422L309.161 121.272L309.041 78.2387L370.799 42.2041Z" fill="white"/>
<g clip-path="url(#clip0)">
<path d="M13.6982 293.516C8.00344 291.873 3.46303 289.734 0 287.136L6.04106 273.839C9.35017 276.246 13.2749 278.157 17.8154 279.609C22.3558 281.061 26.8962 281.786 31.4366 281.786C36.4772 281.786 40.2481 281.022 42.6337 279.532C45.0578 278.042 46.2507 276.055 46.2507 273.572C46.2507 271.738 45.5196 270.248 44.0959 269.025C42.6722 267.841 40.8252 266.847 38.5935 266.121C36.3618 265.395 33.322 264.593 29.5127 263.714C23.664 262.339 18.8543 260.963 15.1219 259.55C11.3895 258.174 8.19583 255.958 5.50237 252.902C2.8089 249.845 1.50065 245.757 1.50065 240.675C1.50065 236.243 2.69347 232.231 5.11759 228.602C7.5417 225.01 11.1971 222.144 16.0454 220.043C20.9706 218.018 26.9347 216.948 33.9762 216.948C38.9013 216.948 43.6726 217.521 48.367 218.706C53.0613 219.852 57.1784 221.533 60.6799 223.711L55.1776 237.16C48.0591 233.148 40.9407 231.161 33.8607 231.161C28.8586 231.161 25.2031 231.964 22.8175 233.569C20.4319 235.173 19.239 237.275 19.239 239.911C19.239 242.547 20.6243 244.496 23.3562 245.757C26.0881 247.018 30.2823 248.278 35.9385 249.539C41.7872 250.915 46.597 252.29 50.3293 253.704C54.0617 255.079 57.2554 257.257 59.9489 260.237C62.6423 263.218 63.9506 267.268 63.9506 272.349C63.9506 276.705 62.7193 280.717 60.2567 284.308C57.7941 287.9 54.1002 290.765 49.2135 292.867C44.2883 294.968 38.3242 296.038 31.2827 296.038C25.2416 296 19.3545 295.159 13.6982 293.516Z" fill="white"/>
<path d="M122.36 256.875C125.939 260.772 127.747 265.587 127.747 271.356C127.747 275.788 126.593 279.876 124.246 283.621C121.899 287.365 118.32 290.383 113.51 292.638C108.701 294.892 102.813 296.038 95.8489 296.038C90.4235 296.038 85.075 295.312 79.842 293.898C74.609 292.485 70.1455 290.46 66.4901 287.823L73.4162 274.298C76.3405 276.476 79.7266 278.157 83.5744 279.38C87.4222 280.564 91.347 281.175 95.3872 281.175C99.8506 281.175 103.391 280.335 105.93 278.615C108.508 276.896 109.778 274.489 109.778 271.356C109.778 265.09 104.968 261.957 95.3872 261.957H87.2683V250.265L103.121 232.461H70.3764V218.286H124.246V229.748L106.854 249.387C113.587 250.456 118.743 252.978 122.36 256.875Z" fill="white"/>
<path d="M171.689 222.603C170.804 221.763 170.381 220.731 170.381 219.508C170.381 218.286 170.804 217.216 171.689 216.337C172.574 215.458 173.613 215.038 174.883 215.038C176.114 215.038 177.192 215.458 178.077 216.299C178.962 217.14 179.385 218.171 179.385 219.394C179.385 220.616 178.962 221.686 178.077 222.565C177.192 223.444 176.153 223.864 174.883 223.864C173.652 223.826 172.574 223.406 171.689 222.603ZM172.151 237.695H177.653V294.663H172.151V237.695Z" fill="white"/>
<path d="M245.875 243.503C250.069 247.667 252.147 253.628 252.147 261.422V294.701H246.645V261.842C246.645 255.424 245.028 250.571 241.758 247.209C238.487 243.847 233.947 242.204 228.06 242.204C221.326 242.204 216.016 244.191 212.13 248.202C208.243 252.214 206.319 257.601 206.319 264.364V294.701H200.817V237.695H206.089V250.036C208.051 246.025 211.014 242.892 214.939 240.637C218.863 238.383 223.481 237.237 228.829 237.237C236.025 237.275 241.719 239.338 245.875 243.503Z" fill="white"/>
<path d="M319.868 243.503C324.063 247.667 326.14 253.628 326.14 261.422V294.701H320.638V261.842C320.638 255.424 319.022 250.571 315.751 247.209C312.481 243.847 307.94 242.204 302.053 242.204C295.319 242.204 290.009 244.191 286.123 248.202C282.237 252.214 280.313 257.601 280.313 264.364V294.701H274.811V237.695H280.082V250.036C282.044 246.025 285.007 242.892 288.932 240.637C292.857 238.383 297.474 237.237 302.823 237.237C310.018 237.275 315.713 239.338 319.868 243.503Z" fill="white"/>
<path d="M356.653 291.415C352.305 288.932 348.881 285.493 346.38 281.099C343.879 276.705 342.647 271.738 342.647 266.198C342.647 260.658 343.879 255.691 346.38 251.297C348.881 246.903 352.305 243.465 356.653 240.981C361.001 238.498 365.888 237.275 371.314 237.275C376.739 237.275 381.626 238.498 385.974 240.981C390.322 243.465 393.746 246.903 396.247 251.297C398.748 255.691 399.98 260.658 399.98 266.198C399.98 271.738 398.748 276.705 396.247 281.099C393.746 285.493 390.322 288.932 385.974 291.415C381.626 293.898 376.739 295.121 371.314 295.121C365.888 295.121 361.001 293.86 356.653 291.415ZM383.126 287.136C386.589 285.111 389.36 282.245 391.361 278.615C393.361 274.986 394.4 270.821 394.4 266.16C394.4 261.498 393.4 257.372 391.361 253.704C389.36 250.074 386.589 247.247 383.126 245.184C379.663 243.159 375.7 242.127 371.314 242.127C366.927 242.127 362.964 243.159 359.501 245.184C356.038 247.209 353.267 250.074 351.266 253.704C349.266 257.334 348.227 261.498 348.227 266.16C348.227 270.821 349.227 274.948 351.266 278.615C353.267 282.245 356.038 285.111 359.501 287.136C362.964 289.161 366.927 290.192 371.314 290.192C375.7 290.192 379.663 289.199 383.126 287.136Z" fill="white"/>
<path d="M461.468 237.695L435.533 294.663H429.916L404.097 237.695H409.907L432.763 288.664L455.85 237.695H461.468Z" fill="white"/>
<path d="M507.411 242.662C511.22 246.253 513.144 251.564 513.144 258.556V294.701H507.872V284.537C506.025 287.9 503.37 290.498 499.83 292.332C496.329 294.204 492.096 295.121 487.171 295.121C480.784 295.121 475.743 293.631 472.049 290.651C468.355 287.67 466.508 283.735 466.508 278.844C466.508 274.107 468.201 270.286 471.626 267.344C475.05 264.402 480.476 262.912 487.941 262.912H507.603V258.327C507.603 253.016 506.141 248.966 503.255 246.215C500.369 243.464 496.136 242.051 490.557 242.051C486.748 242.051 483.092 242.7 479.629 243.999C476.166 245.298 473.203 247.056 470.779 249.234L468.047 245.298C470.895 242.738 474.358 240.752 478.398 239.338C482.438 237.924 486.632 237.198 491.057 237.198C498.137 237.275 503.601 239.07 507.411 242.662ZM500.1 287.365C503.447 285.187 505.948 282.016 507.641 277.851V267.153H488.056C482.4 267.153 478.321 268.185 475.782 270.21C473.242 272.235 471.972 275.062 471.972 278.615C471.972 282.321 473.357 285.263 476.166 287.403C478.937 289.543 482.861 290.612 487.941 290.612C492.712 290.651 496.752 289.543 500.1 287.365Z" fill="white"/>
<path d="M564.243 291.071C562.857 292.37 561.126 293.364 559.01 294.09C556.932 294.777 554.739 295.121 552.468 295.121C547.466 295.121 543.618 293.746 540.925 291.033C538.231 288.32 536.846 284.5 536.846 279.609V242.395H526.303V237.695H536.846V225.278H542.349V237.733H560.587V242.433H542.349V279.112C542.349 282.818 543.234 285.646 545.042 287.556C546.851 289.467 549.505 290.46 553.007 290.46C556.585 290.46 559.548 289.39 561.895 287.289L564.243 291.071Z" fill="white"/>
<path d="M625.885 267.497H576.517C576.671 271.929 577.787 275.903 579.942 279.342C582.058 282.78 584.944 285.455 588.561 287.365C592.178 289.275 596.256 290.192 600.835 290.192C604.568 290.192 608.031 289.505 611.224 288.167C614.418 286.83 617.073 284.843 619.189 282.207L622.383 285.799C619.882 288.779 616.765 291.071 612.994 292.676C609.224 294.281 605.145 295.083 600.72 295.083C594.987 295.083 589.908 293.86 585.444 291.377C580.981 288.893 577.479 285.493 574.94 281.099C572.4 276.743 571.13 271.738 571.13 266.16C571.13 260.62 572.323 255.653 574.709 251.259C577.094 246.865 580.365 243.426 584.559 240.943C588.753 238.459 593.409 237.237 598.642 237.237C603.837 237.237 608.531 238.459 612.648 240.905C616.804 243.35 620.036 246.75 622.422 251.106C624.807 255.462 626 260.429 626 265.969L625.885 267.497ZM587.753 244.725C584.521 246.521 581.943 249.005 580.019 252.252C578.095 255.5 576.94 259.13 576.671 263.218H620.652C620.421 259.13 619.343 255.5 617.342 252.291C615.38 249.081 612.764 246.598 609.531 244.764C606.299 242.93 602.682 242.051 598.642 242.051C594.602 242.051 590.985 242.968 587.753 244.725Z" fill="white"/>
</g>
<defs>
<clipPath id="clip0">
<rect width="626" height="81" fill="white" transform="translate(0 215)"/>
</clipPath>
</defs>
</svg>
